<svg width="60" height="60" viewBox="0 0 60 60" fill="none" xmlns="http://www.w3.org/2000/svg">
<g clip-path="url(#clip0_83_404)">
<path d="M32.5 17.5H27.5V27.5H17.5V32.5H27.5V42.5H32.5V32.5H42.5V27.5H32.5V17.5ZM30 5C16.2 5 5 16.2 5 30C5 43.8 16.2 55 30 55C43.8 55 55 43.8 55 30C55 16.2 43.8 5 30 5ZM30 50C18.975 50 10 41.025 10 30C10 18.975 18.975 10 30 10C41.025 10 50 18.975 50 30C50 41.025 41.025 50 30 50Z" fill="#8449F5"/>
</g>
<defs>
<clipPath id="clip0_83_404">
<rect width="60" height="60" fill="white"/>
</clipPath>
</defs>
</svg>
