<svg width="50" height="50" viewBox="0 0 50 50" fill="none" xmlns="http://www.w3.org/2000/svg">
<path d="M12.9841 50H19.4886C27.4941 50 32.4976 45 32.4976 37V26.8749L16.8618 26.8749C15.836 26.8749 14.9855 26.0249 14.9855 24.9999C14.9855 23.9749 15.836 23.1249 16.8618 23.1249L32.4976 23.1249L32.4976 12.9999C32.4976 4.99986 27.4941 -0.000160217 19.4886 -0.000160217H13.0091C5.00356 -0.000160217 9.91821e-05 4.99986 9.91821e-05 12.9999L9.91821e-05 37C-0.0249176 45 4.97854 50 12.9841 50Z" fill="white"/>
<path d="M43.6018 26.8752L38.4232 32.0501C38.048 32.4251 37.8729 32.9001 37.8729 33.3751C37.8729 33.8501 38.048 34.3501 38.4232 34.7001C39.1488 35.4251 40.3496 35.4251 41.0751 34.7001L49.4559 26.3252C50.1814 25.6002 50.1814 24.4002 49.4559 23.6752L41.0751 15.3002C40.3496 14.5752 39.1488 14.5752 38.4232 15.3002C37.6977 16.0252 37.6977 17.2252 38.4232 17.9502L43.6018 23.1252H32.4942V26.8752H43.6018Z" fill="white"/>
</svg>
