<svg width="50" height="50" viewBox="0 0 50 50" fill="none" xmlns="http://www.w3.org/2000/svg">
<path d="M19.8795 21.1564C19.8795 22.4576 20.241 22.6504 21.0602 22.9395L22.2892 23.3732V19.2769H21.5663C20.6506 19.2769 19.8795 20.1202 19.8795 21.1564Z" fill="#FBFBFB"/>
<path d="M25.9037 32.5319H26.6266C27.5663 32.5319 28.3133 31.6886 28.3133 30.6524C28.3133 29.3512 27.9519 29.1584 27.1326 28.8693L25.9037 28.4355V32.5319Z" fill="#FBFBFB"/>
<path d="M42.3614 10.1927L37.4217 15.1324C37.0602 15.4939 36.6024 15.6626 36.1446 15.6626C35.6867 15.6626 35.2289 15.4939 34.8675 15.1324C34.1687 14.4336 34.1687 13.277 34.8675 12.5782L39.8072 7.63845C35.5663 4.024 30.0964 1.80713 24.0964 1.80713C10.7952 1.80713 0 12.6023 0 25.9035C0 39.2047 10.7952 49.9999 24.0964 49.9999C37.3976 49.9999 48.1928 39.2047 48.1928 25.9035C48.1928 19.9035 45.9759 14.4336 42.3614 10.1927ZM28.3133 25.4698C29.8554 26.024 31.9277 27.1324 31.9277 30.6746C31.9277 33.6866 29.5422 36.1686 26.6265 36.1686H25.9036V36.771C25.9036 37.7589 25.0843 38.5782 24.0964 38.5782C23.1084 38.5782 22.2892 37.7589 22.2892 36.771V36.1686H22.0964C18.8916 36.1686 16.2651 33.4698 16.2651 30.1445C16.2651 29.1324 17.0843 28.3132 18.0723 28.3132C19.0602 28.3132 19.8795 29.1324 19.8795 30.1204C19.8795 31.4457 20.8675 32.53 22.0964 32.53H22.2892V27.1806L19.8795 26.3373C18.3374 25.783 16.2651 24.6746 16.2651 21.1324C16.2651 18.1204 18.6506 15.6385 21.5663 15.6385H22.2892V15.0601C22.2892 14.0722 23.1084 13.2529 24.0964 13.2529C25.0843 13.2529 25.9036 14.0722 25.9036 15.0601V15.6626H26.0964C29.3012 15.6626 31.9277 18.3613 31.9277 21.6866C31.9277 22.6746 31.1084 23.4939 30.1205 23.4939C29.1325 23.4939 28.3133 22.6746 28.3133 21.6866C28.3133 20.3613 27.3253 19.277 26.0964 19.277H25.9036V24.6264L28.3133 25.4698Z" fill="#FBFBFB"/>
<path d="M49.8556 1.10843C49.6629 0.674699 49.3255 0.313253 48.8677 0.120482C48.6508 0.0481927 48.4339 0 48.193 0H38.5544C37.5665 0 36.7472 0.819277 36.7472 1.80723C36.7472 2.79518 37.5665 3.61446 38.5544 3.61446H43.8315L39.8074 7.63855C40.7231 8.43373 41.5665 9.27711 42.3617 10.1928L46.3857 6.16867V11.4458C46.3857 12.4337 47.205 13.253 48.193 13.253C49.1809 13.253 50.0002 12.4337 50.0002 11.4458V1.80723C50.0002 1.56626 49.952 1.3494 49.8556 1.10843Z" fill="#FBFBFB"/>
</svg>
