<svg width="55" height="55" viewBox="0 0 55 55" fill="none" xmlns="http://www.w3.org/2000/svg">
<path d="M0 0L17.5432 39.4385L28.8976 31.8407L36.5418 33.7485L38.1405 21.9561L46.2121 13.7104L0 0ZM7.68442 6.18171L34.6565 20.8498L34.3071 29.1544L7.68442 6.18171Z" fill="#8449F5"/>
<path d="M39.395 36.6526C40.7323 38.0021 41.9741 39.4285 43.1857 40.8779C44.3923 42.3298 45.5637 43.81 46.6999 45.3183C47.8361 46.824 48.9396 48.3579 50.0054 49.9225C51.0662 51.4897 52.0993 53.0774 53.0319 54.7445C51.6921 53.3949 50.4528 51.9712 49.2412 50.5218C48.0346 49.0698 46.8633 47.5897 45.7271 46.0814C44.5909 44.5731 43.4873 43.0392 42.424 41.4771C41.3607 39.9048 40.3301 38.3171 39.395 36.6526Z" fill="#8449F5"/>
<path d="M27.8369 36.9082C29.1742 38.2577 30.416 39.6841 31.6276 41.1335C32.8342 42.5854 34.0056 44.0656 35.1418 45.5739C36.278 47.0796 37.3815 48.6135 38.4473 50.1781C39.5081 51.7453 40.5412 53.333 41.4738 55.0001C40.134 53.6506 38.8947 52.2268 37.6831 50.7774C36.4766 49.3254 35.3052 47.8453 34.169 46.337C33.0328 44.8287 31.9292 43.2948 30.8634 41.7327C29.8052 40.1604 28.772 38.5727 27.8369 36.9082Z" fill="#8449F5"/>
<path d="M41.3633 21.9714C42.7006 23.321 43.9424 24.7473 45.154 26.1967C46.3605 27.6487 47.5319 29.1288 48.6681 30.6371C49.8043 32.1428 50.9078 33.6767 51.9737 35.2414C53.0344 36.8086 54.0676 38.3963 55.0002 40.0633C53.6604 38.7138 52.4211 37.29 51.2095 35.8406C50.0029 34.3886 48.8315 32.9085 47.6978 31.4002C46.5616 29.8919 45.4581 28.358 44.3923 26.7959C43.3315 25.2236 42.2984 23.6359 41.3633 21.9714Z" fill="#8449F5"/>
</svg>
